<svg width="512" height="512" viewBox="0 0 512 512" fill="none" xmlns="http://www.w3.org/2000/svg">
  <defs>
    <linearGradient id="bg" x1="0" y1="0" x2="512" y2="512" gradientUnits="userSpaceOnUse">
      <stop offset="0" stop-color="#050509"/>
      <stop offset="0.55" stop-color="#090014"/>
      <stop offset="1" stop-color="#020617"/>
    </linearGradient>
    <linearGradient id="zgrad" x1="105" y1="105" x2="407" y2="407" gradientUnits="userSpaceOnUse">
      <stop offset="0" stop-color="#FF149D"/>
      <stop offset="0.48" stop-color="#8B2CFF"/>
      <stop offset="1" stop-color="#00A3FF"/>
    </linearGradient>
    <linearGradient id="edge" x1="70" y1="60" x2="450" y2="450" gradientUnits="userSpaceOnUse">
      <stop offset="0" stop-color="#FF149D"/>
      <stop offset="0.5" stop-color="#8B2CFF"/>
      <stop offset="1" stop-color="#00A3FF"/>
    </linearGradient>
    <filter id="glow" x="-40%" y="-40%" width="180%" height="180%">
      <feGaussianBlur stdDeviation="14" result="blur"/>
      <feColorMatrix in="blur" type="matrix" values="1 0 0 0 0.9  0 1 0 0 0.1  0 0 1 0 1  0 0 0 0.8 0"/>
      <feMerge>
        <feMergeNode/>
        <feMergeNode in="SourceGraphic"/>
      </feMerge>
    </filter>
    <filter id="softShadow" x="-30%" y="-30%" width="160%" height="160%">
      <feDropShadow dx="0" dy="18" stdDeviation="18" flood-color="#000000" flood-opacity="0.55"/>
    </filter>
  </defs>

  <rect x="30" y="30" width="452" height="452" rx="112" fill="url(#bg)"/>
  <rect x="34" y="34" width="444" height="444" rx="108" stroke="url(#edge)" stroke-opacity="0.55" stroke-width="8"/>
  <path opacity="0.5" d="M98 112H246M92 390H214M366 114H420M304 398H422" stroke="url(#edge)" stroke-width="7" stroke-linecap="round"/>
  <circle cx="112" cy="116" r="8" fill="#FF149D" opacity="0.9"/>
  <circle cx="400" cy="396" r="8" fill="#00A3FF" opacity="0.9"/>

  <g filter="url(#softShadow)">
    <path filter="url(#glow)" d="M158 132H388L354 190H248L382 190L199 380H116L250 236H123L158 132Z" fill="url(#zgrad)"/>
    <path d="M170 150H344L323 184H243L374 184L190 363H150L285 218H149L170 150Z" fill="white" fill-opacity="0.12"/>
    <path d="M158 132H388L354 190H248L382 190L199 380H116L250 236H123L158 132Z" stroke="white" stroke-opacity="0.20" stroke-width="5" stroke-linejoin="round"/>
  </g>

  <path d="M130 413H382" stroke="url(#edge)" stroke-width="9" stroke-linecap="round"/>
</svg>
